# xmcd CD database file
#
# Track frame offsets:
#	150
#	17640
#	30830
#	46515
#	74438
#	93723
#	109405
#	133955
#	147628
#	167930
#
# Disc length: 2661 seconds
#
# Revision: 3
# Processed by: cddbd v1.5.1PL0 Copyright (c) Steve Scherf et al.
# Submitted via: CDex 1.51
#
DISCID=8e0a630a
DTITLE=Quincy Jones - Mellow Madness
DYEAR=1975
DGENRE=Fusion
TTITLE0=Is It Love That We're Missin'
TTITLE1=Paranoid
TTITLE2=Mellow Madness
TTITLE3=Beautiful Black Girl
TTITLE4=Listen (What It Is)
TTITLE5=Just A Little Taste Of Me
TTITLE6=My Cherie Amour
TTITLE7=Tryin' To Find Out About You
TTITLE8=Cry Baby
TTITLE9=Bluesette
EXTD=(c)  1975 YEAR: 1975
EXTT0=
EXTT1=
EXTT2=
EXTT3=
EXTT4=
EXTT5=
EXTT6=
EXTT7=
EXTT8=
EXTT9=
PLAYORDER=
